<svg width="364" height="112" viewBox="0 0 364 112" fill="none" xmlns="http://www.w3.org/2000/svg">
<g filter="url(#filter0_i_8_14)">
<path d="M16.0582 39.632V12.992H13.9942C12.7782 12.992 11.7702 13.056 10.9702 13.184C10.2022 13.28 9.62619 13.488 9.24219 13.808C8.89019 14.128 8.68219 14.576 8.61819 15.152L8.04219 20.24H4.77819V9.92H35.0662V20.24H31.7542L31.2262 15.152C31.1622 14.576 30.9382 14.128 30.5542 13.808C30.1702 13.488 29.5942 13.28 28.8262 13.184C28.0582 13.056 27.0662 12.992 25.8502 12.992H23.7382V39.632C23.7382 40.336 24.0422 40.8 24.6502 41.024C25.2582 41.248 26.0262 41.36 26.9542 41.36H27.6742V44H12.1222V41.36H12.8422C13.7702 41.36 14.5382 41.248 15.1462 41.024C15.7542 40.8 16.0582 40.336 16.0582 39.632ZM48.4698 8.576V40.976C48.4698 41.104 48.5978 41.216 48.8538 41.312C49.1418 41.376 49.4938 41.424 49.9098 41.456C50.3258 41.488 50.7098 41.504 51.0618 41.504H51.1578V44H38.1498V41.504H38.1978C38.7738 41.504 39.2858 41.472 39.7338 41.408C40.1818 41.312 40.5338 41.152 40.7898 40.928C41.0458 40.704 41.1738 40.384 41.1738 39.968V13.04C41.1738 12.624 41.0778 12.32 40.8858 12.128C40.7258 11.904 40.4538 11.728 40.0698 11.6C39.6858 11.472 39.1898 11.344 38.5818 11.216L38.1498 11.12V8.576H48.4698ZM67.5738 44H54.5658V41.504H54.6618C54.9818 41.504 55.3498 41.488 55.7658 41.456C56.1818 41.424 56.5338 41.376 56.8218 41.312C57.1418 41.248 57.3018 41.168 57.3018 41.072V27.008C57.3018 26.048 57.1898 25.264 56.9658 24.656C56.7738 24.048 56.4378 23.6 55.9578 23.312C55.5098 22.992 54.9018 22.832 54.1338 22.832C53.2698 22.832 52.4538 23.056 51.6858 23.504C50.9178 23.92 50.1978 24.544 49.5258 25.376C48.8538 26.208 48.1978 27.216 47.5578 28.4L47.4138 24.8C48.1178 23.552 48.9178 22.496 49.8138 21.632C50.7098 20.736 51.7178 20.064 52.8378 19.616C53.9578 19.136 55.2058 18.896 56.5818 18.896C58.2138 18.896 59.6218 19.2 60.8058 19.808C61.9898 20.416 62.9018 21.312 63.5418 22.496C64.2138 23.68 64.5498 25.184 64.5498 27.008V39.968C64.5498 40.576 64.8378 40.992 65.4138 41.216C65.9898 41.408 66.6938 41.504 67.5258 41.504H67.5738V44ZM77.3756 31.856C77.3756 33.36 77.5356 34.704 77.8556 35.888C78.1756 37.072 78.6396 38.064 79.2476 38.864C79.8556 39.664 80.5916 40.272 81.4556 40.688C82.3516 41.072 83.3596 41.264 84.4796 41.264C85.6956 41.264 86.7356 41.04 87.5996 40.592C88.4956 40.112 89.2636 39.52 89.9036 38.816C90.5436 38.08 91.0876 37.328 91.5356 36.56L94.0796 38.48C93.4396 39.632 92.6396 40.672 91.6796 41.6C90.7196 42.496 89.5676 43.2 88.2236 43.712C86.9116 44.224 85.3436 44.48 83.5196 44.48C80.8636 44.48 78.5276 43.968 76.5116 42.944C74.4956 41.92 72.9116 40.464 71.7596 38.576C70.6396 36.656 70.0796 34.384 70.0796 31.76C70.0796 29.2 70.6236 26.96 71.7116 25.04C72.7996 23.12 74.3036 21.616 76.2236 20.528C78.1436 19.44 80.2876 18.896 82.6556 18.896C84.5756 18.896 86.2556 19.2 87.6956 19.808C89.1356 20.384 90.3516 21.248 91.3436 22.4C92.3676 23.52 93.1356 24.944 93.6476 26.672C94.1596 28.4 94.4156 30.4 94.4156 32.672H75.9836V29.744H88.6556L87.5036 30.896C87.4716 29.264 87.3596 27.888 87.1676 26.768C86.9756 25.616 86.6876 24.704 86.3036 24.032C85.9196 23.328 85.4236 22.816 84.8156 22.496C84.2396 22.176 83.5676 22.016 82.7996 22.016C81.9996 22.016 81.2636 22.224 80.5916 22.64C79.9516 23.024 79.3916 23.632 78.9116 24.464C78.4316 25.264 78.0476 26.272 77.7596 27.488C77.5036 28.704 77.3756 30.16 77.3756 31.856ZM118.863 19.376V36.32C118.863 37.28 118.959 38.08 119.151 38.72C119.375 39.36 119.711 39.824 120.159 40.112C120.639 40.4 121.247 40.544 121.983 40.544C122.815 40.544 123.599 40.352 124.335 39.968C125.071 39.552 125.775 38.944 126.447 38.144C127.119 37.312 127.775 36.272 128.415 35.024L128.607 38.576C127.903 39.856 127.103 40.944 126.207 41.84C125.311 42.704 124.303 43.36 123.183 43.808C122.095 44.256 120.879 44.48 119.535 44.48C117.935 44.48 116.543 44.192 115.359 43.616C114.175 43.008 113.247 42.096 112.575 40.88C111.935 39.664 111.615 38.16 111.615 36.368V23.84C111.615 23.264 111.407 22.864 110.991 22.64C110.575 22.416 109.919 22.224 109.023 22.064L108.543 21.968V19.376H118.863ZM134.799 19.376V39.872C134.799 40.256 134.911 40.56 135.135 40.784C135.391 40.976 135.727 41.12 136.143 41.216C136.559 41.312 137.055 41.376 137.631 41.408L137.871 41.456V44H128.031V38.672L127.503 38.624V23.84C127.503 23.264 127.247 22.864 126.735 22.64C126.255 22.384 125.551 22.208 124.623 22.112L123.759 21.968V19.376H134.799ZM140.056 44V41.504H140.104C140.68 41.504 141.192 41.472 141.64 41.408C142.088 41.312 142.44 41.152 142.696 40.928C142.952 40.704 143.08 40.384 143.08 39.968V23.84C143.08 23.456 142.984 23.168 142.792 22.976C142.6 22.752 142.312 22.576 141.928 22.448C141.544 22.32 141.064 22.192 140.488 22.064L140.056 21.968V19.376H149.848V24.608L150.328 24.8V41.072C150.328 41.168 150.472 41.248 150.76 41.312C151.048 41.376 151.384 41.424 151.768 41.456C152.184 41.488 152.568 41.504 152.92 41.504H153.064V44H140.056ZM169.48 44H156.472V41.504H156.52C156.872 41.504 157.256 41.488 157.672 41.456C158.088 41.424 158.44 41.376 158.728 41.312C159.016 41.248 159.16 41.168 159.16 41.072V27.008C159.16 26.048 159.048 25.264 158.824 24.656C158.632 24.048 158.312 23.6 157.864 23.312C157.416 22.992 156.808 22.832 156.04 22.832C155.176 22.832 154.344 23.056 153.544 23.504C152.776 23.92 152.056 24.544 151.384 25.376C150.712 26.208 150.072 27.232 149.464 28.448L149.272 24.8C150.008 23.552 150.808 22.496 151.672 21.632C152.568 20.736 153.576 20.064 154.696 19.616C155.848 19.136 157.112 18.896 158.488 18.896C160.088 18.896 161.48 19.2 162.664 19.808C163.88 20.416 164.808 21.312 165.448 22.496C166.12 23.68 166.456 25.184 166.456 27.008V39.968C166.456 40.384 166.584 40.704 166.84 40.928C167.096 41.152 167.432 41.312 167.848 41.408C168.296 41.472 168.808 41.504 169.384 41.504H169.48V44ZM178.272 15.296C177.024 15.296 176.016 14.976 175.248 14.336C174.512 13.696 174.144 12.816 174.144 11.696C174.144 10.576 174.512 9.696 175.248 9.056C176.016 8.416 177.024 8.096 178.272 8.096C179.52 8.096 180.512 8.416 181.248 9.056C182.016 9.696 182.4 10.576 182.4 11.696C182.4 12.816 182.016 13.696 181.248 14.336C180.512 14.976 179.52 15.296 178.272 15.296ZM182.064 19.376V39.968C182.064 40.576 182.336 40.992 182.88 41.216C183.456 41.408 184.176 41.504 185.04 41.504H185.088V44H171.744V41.504H171.792C172.656 41.504 173.36 41.408 173.904 41.216C174.48 40.992 174.768 40.576 174.768 39.968V23.84C174.768 23.264 174.56 22.88 174.144 22.688C173.728 22.464 173.072 22.256 172.176 22.064L171.744 21.968V19.376H182.064ZM207.565 22.88C207.565 22.688 207.389 22.512 207.037 22.352C206.717 22.192 206.317 22.08 205.837 22.016C205.357 21.92 204.845 21.872 204.301 21.872H204.205V19.376H213.421V21.872H213.373C212.957 21.872 212.557 21.936 212.173 22.064C211.821 22.192 211.501 22.4 211.213 22.688C210.925 22.976 210.685 23.392 210.493 23.936L203.197 44H196.477L188.989 23.504C188.829 23.056 188.621 22.72 188.365 22.496C188.109 22.272 187.805 22.112 187.453 22.016C187.101 21.92 186.669 21.872 186.157 21.872H186.109V19.376H199.453V21.872H199.357C198.813 21.872 198.269 21.888 197.725 21.92C197.213 21.952 196.781 22 196.429 22.064C196.077 22.096 195.901 22.176 195.901 22.304L202.381 40.592L201.373 40.304L207.565 22.88ZM221.704 31.856C221.704 33.36 221.864 34.704 222.184 35.888C222.504 37.072 222.968 38.064 223.576 38.864C224.184 39.664 224.92 40.272 225.784 40.688C226.68 41.072 227.688 41.264 228.808 41.264C230.024 41.264 231.064 41.04 231.928 40.592C232.824 40.112 233.592 39.52 234.232 38.816C234.872 38.08 235.416 37.328 235.864 36.56L238.408 38.48C237.768 39.632 236.968 40.672 236.008 41.6C235.048 42.496 233.896 43.2 232.552 43.712C231.24 44.224 229.672 44.48 227.848 44.48C225.192 44.48 222.856 43.968 220.84 42.944C218.824 41.92 217.24 40.464 216.088 38.576C214.968 36.656 214.408 34.384 214.408 31.76C214.408 29.2 214.952 26.96 216.04 25.04C217.128 23.12 218.632 21.616 220.552 20.528C222.472 19.44 224.616 18.896 226.984 18.896C228.904 18.896 230.584 19.2 232.024 19.808C233.464 20.384 234.68 21.248 235.672 22.4C236.696 23.52 237.464 24.944 237.976 26.672C238.488 28.4 238.744 30.4 238.744 32.672H220.312V29.744H232.984L231.832 30.896C231.8 29.264 231.688 27.888 231.496 26.768C231.304 25.616 231.016 24.704 230.632 24.032C230.248 23.328 229.752 22.816 229.144 22.496C228.568 22.176 227.896 22.016 227.128 22.016C226.328 22.016 225.592 22.224 224.92 22.64C224.28 23.024 223.72 23.632 223.24 24.464C222.76 25.264 222.376 26.272 222.088 27.488C221.832 28.704 221.704 30.16 221.704 31.856ZM260.21 19.232V25.568C259.986 25.504 259.714 25.44 259.394 25.376C259.074 25.312 258.738 25.264 258.386 25.232C258.066 25.2 257.746 25.184 257.426 25.184C256.658 25.184 255.954 25.28 255.314 25.472C254.706 25.632 254.13 25.888 253.586 26.24C253.074 26.592 252.61 27.056 252.194 27.632C251.778 28.208 251.378 28.896 250.994 29.696L250.946 27.056C251.426 25.488 251.986 24.112 252.626 22.928C253.298 21.712 254.098 20.768 255.026 20.096C255.986 19.392 257.138 19.04 258.482 19.04C258.866 19.04 259.202 19.056 259.49 19.088C259.81 19.12 260.05 19.168 260.21 19.232ZM241.634 44V41.504H241.682C242.546 41.504 243.25 41.408 243.794 41.216C244.37 40.992 244.658 40.576 244.658 39.968V23.84C244.658 23.456 244.562 23.168 244.37 22.976C244.178 22.752 243.89 22.576 243.506 22.448C243.122 22.32 242.642 22.192 242.066 22.064L241.634 21.968V19.376H251.426V26.912L251.906 26.432V40.496C251.906 40.784 252.082 41.008 252.434 41.168C252.818 41.296 253.266 41.392 253.778 41.456C254.322 41.488 254.802 41.504 255.218 41.504H255.842V44H241.634ZM277.751 38.048C277.751 37.44 277.591 36.944 277.271 36.56C276.983 36.176 276.551 35.856 275.975 35.6C275.431 35.312 274.791 35.072 274.055 34.88C273.351 34.656 272.599 34.432 271.799 34.208C270.807 33.952 269.815 33.664 268.823 33.344C267.863 32.992 266.967 32.544 266.135 32C265.335 31.424 264.679 30.688 264.167 29.792C263.687 28.896 263.447 27.776 263.447 26.432C263.447 24.832 263.863 23.472 264.695 22.352C265.559 21.232 266.743 20.368 268.247 19.76C269.783 19.152 271.575 18.848 273.623 18.848C275.287 18.848 276.727 18.976 277.943 19.232C279.159 19.488 280.151 19.792 280.919 20.144C281.719 20.496 282.279 20.8 282.599 21.056V26H277.271V21.584C277.687 21.584 278.007 21.648 278.231 21.776C278.487 21.904 278.647 22.08 278.711 22.304C278.807 22.528 278.839 22.784 278.807 23.072C278.807 23.328 278.759 23.568 278.663 23.792C278.311 23.376 277.879 23.024 277.367 22.736C276.887 22.416 276.343 22.192 275.735 22.064C275.127 21.904 274.439 21.824 273.671 21.824C272.295 21.824 271.255 22.112 270.551 22.688C269.847 23.264 269.495 24.016 269.495 24.944C269.495 25.552 269.655 26.064 269.975 26.48C270.327 26.896 270.791 27.248 271.367 27.536C271.975 27.824 272.647 28.08 273.383 28.304C274.151 28.496 274.951 28.704 275.783 28.928C276.775 29.184 277.767 29.488 278.759 29.84C279.751 30.192 280.647 30.64 281.447 31.184C282.279 31.728 282.935 32.432 283.415 33.296C283.927 34.128 284.183 35.184 284.183 36.464C284.183 38.096 283.751 39.52 282.887 40.736C282.023 41.92 280.759 42.848 279.095 43.52C277.463 44.16 275.447 44.48 273.047 44.48C271.383 44.48 269.879 44.336 268.535 44.048C267.191 43.792 266.023 43.472 265.031 43.088C264.071 42.672 263.287 42.272 262.679 41.888V36.512H268.103V42.224C267.623 41.968 267.239 41.696 266.951 41.408C266.695 41.12 266.519 40.832 266.423 40.544C266.327 40.256 266.311 40 266.375 39.776C266.471 39.52 266.615 39.312 266.807 39.152C267.255 39.696 267.783 40.144 268.391 40.496C269.031 40.816 269.735 41.072 270.503 41.264C271.271 41.424 272.119 41.504 273.047 41.504C274.039 41.504 274.871 41.376 275.543 41.12C276.247 40.832 276.791 40.432 277.175 39.92C277.559 39.408 277.751 38.784 277.751 38.048ZM293.397 15.296C292.149 15.296 291.141 14.976 290.373 14.336C289.637 13.696 289.269 12.816 289.269 11.696C289.269 10.576 289.637 9.696 290.373 9.056C291.141 8.416 292.149 8.096 293.397 8.096C294.645 8.096 295.637 8.416 296.373 9.056C297.141 9.696 297.525 10.576 297.525 11.696C297.525 12.816 297.141 13.696 296.373 14.336C295.637 14.976 294.645 15.296 293.397 15.296ZM297.189 19.376V39.968C297.189 40.576 297.461 40.992 298.005 41.216C298.581 41.408 299.301 41.504 300.165 41.504H300.213V44H286.869V41.504H286.917C287.781 41.504 288.485 41.408 289.029 41.216C289.605 40.992 289.893 40.576 289.893 39.968V23.84C289.893 23.264 289.685 22.88 289.269 22.688C288.853 22.464 288.197 22.256 287.301 22.064L286.869 21.968V19.376H297.189ZM301.374 22.352V19.616H301.566C302.334 19.616 303.006 19.552 303.582 19.424C304.19 19.296 304.638 19.072 304.926 18.752C305.246 18.4 305.422 17.92 305.454 17.312L309.246 19.376H318.654V22.352H301.374ZM312.222 35.936C312.222 37.216 312.366 38.24 312.654 39.008C312.974 39.776 313.406 40.32 313.95 40.64C314.526 40.96 315.198 41.12 315.966 41.12C316.606 41.12 317.198 41.056 317.742 40.928C318.318 40.768 318.75 40.64 319.038 40.544V43.664C318.782 43.792 318.414 43.92 317.934 44.048C317.454 44.176 316.91 44.272 316.302 44.336C315.694 44.432 315.022 44.48 314.286 44.48C312.558 44.48 310.99 44.224 309.582 43.712C308.174 43.168 307.054 42.272 306.222 41.024C305.39 39.744 304.974 38.016 304.974 35.84V20.144L305.358 19.808L305.55 12.752H312.222V35.936ZM337.678 39.584L335.758 43.376L333.55 46.064L323.71 23.504C323.55 23.088 323.342 22.768 323.086 22.544C322.83 22.288 322.51 22.112 322.126 22.016C321.774 21.92 321.342 21.872 320.83 21.872H320.782V19.376H334.174V21.872H334.078C333.566 21.872 333.038 21.888 332.494 21.92C331.982 21.952 331.55 22 331.198 22.064C330.846 22.128 330.67 22.224 330.67 22.352L337.678 39.584ZM337.39 43.328C336.526 45.408 335.646 47.2 334.75 48.704C333.886 50.24 332.99 51.472 332.062 52.4C331.166 53.36 330.222 54.064 329.23 54.512C328.238 54.96 327.166 55.184 326.014 55.184C325.118 55.184 324.366 55.088 323.758 54.896C323.15 54.704 322.67 54.48 322.318 54.224V48.8C322.446 48.832 322.702 48.928 323.086 49.088C323.502 49.28 324.014 49.456 324.622 49.616C325.262 49.776 325.934 49.856 326.638 49.856C327.374 49.856 328.078 49.76 328.75 49.568C329.454 49.376 330.126 49.008 330.766 48.464C331.406 47.92 332.03 47.168 332.638 46.208C333.246 45.248 333.854 44 334.462 42.464L335.278 40.544L342.622 22.976C342.622 22.752 342.462 22.56 342.142 22.4C341.854 22.24 341.454 22.112 340.942 22.016C340.462 21.92 339.95 21.872 339.406 21.872H339.262V19.376H348.574V21.872H348.526C348.11 21.872 347.71 21.936 347.326 22.064C346.974 22.192 346.638 22.416 346.318 22.736C346.03 23.056 345.774 23.504 345.55 24.08L337.39 43.328ZM28.7587 87.712C28.7587 90.208 28.1987 92.432 27.0787 94.384C25.9587 96.304 24.3907 97.808 22.3747 98.896C20.3587 99.952 17.9907 100.48 15.2707 100.48C12.5827 100.48 10.2147 99.952 8.16669 98.896C6.15069 97.808 4.58269 96.304 3.46269 94.384C2.34269 92.432 1.78269 90.208 1.78269 87.712C1.78269 85.824 2.08669 84.096 2.69469 82.528C3.33469 80.96 4.24669 79.616 5.43069 78.496C6.64669 77.344 8.07069 76.464 9.70269 75.856C11.3667 75.216 13.2227 74.896 15.2707 74.896C17.2867 74.896 19.1107 75.216 20.7427 75.856C22.4067 76.464 23.8307 77.344 25.0147 78.496C26.2307 79.616 27.1587 80.96 27.7987 82.528C28.4387 84.096 28.7587 85.824 28.7587 87.712ZM9.27069 87.712C9.27069 89.76 9.51069 91.52 9.99069 92.992C10.4707 94.464 11.1427 95.568 12.0067 96.304C12.9027 97.04 13.9907 97.408 15.2707 97.408C16.5507 97.408 17.6227 97.04 18.4867 96.304C19.3827 95.568 20.0707 94.48 20.5507 93.04C21.0307 91.568 21.2707 89.792 21.2707 87.712C21.2707 85.6 21.0307 83.824 20.5507 82.384C20.0707 80.944 19.3827 79.856 18.4867 79.12C17.6227 78.384 16.5507 78.016 15.2707 78.016C13.9907 78.016 12.9027 78.4 12.0067 79.168C11.1427 79.904 10.4707 80.992 9.99069 82.432C9.51069 83.84 9.27069 85.6 9.27069 87.712ZM31.2502 75.376H49.2502V78.352H31.2502V75.376ZM50.8822 64.432V67.696C50.4982 67.568 49.9862 67.424 49.3462 67.264C48.7062 67.072 48.0022 66.976 47.2342 66.976C46.3062 66.976 45.5062 67.152 44.8342 67.504C44.1942 67.824 43.6982 68.384 43.3462 69.184C42.9942 69.984 42.8182 71.072 42.8182 72.448V96.976C42.8182 97.104 42.9942 97.216 43.3462 97.312C43.7302 97.376 44.2102 97.424 44.7862 97.456C45.3942 97.488 46.0342 97.504 46.7062 97.504H47.2342V100H31.6822V97.504H32.2102C33.2662 97.504 34.0822 97.392 34.6582 97.168C35.2662 96.944 35.5702 96.528 35.5702 95.92V73.12C35.5702 70.816 36.0662 69.008 37.0582 67.696C38.0502 66.352 39.3622 65.392 40.9942 64.816C42.6582 64.208 44.4822 63.904 46.4662 63.904C47.3942 63.904 48.2582 63.952 49.0582 64.048C49.8582 64.144 50.4662 64.272 50.8822 64.432ZM80.0816 100.48C78.7056 100.48 77.4736 100.288 76.3856 99.904C75.2976 99.52 74.3216 98.912 73.4576 98.08C72.5936 97.248 71.7776 96.176 71.0096 94.864L71.4416 90.304C72.0816 91.744 72.7376 92.96 73.4096 93.952C74.1136 94.944 74.8656 95.696 75.6656 96.208C76.4976 96.688 77.4256 96.928 78.4496 96.928C79.4096 96.928 80.2256 96.72 80.8976 96.304C81.6016 95.856 82.1776 95.216 82.6256 94.384C83.1056 93.552 83.4576 92.56 83.6816 91.408C83.9056 90.256 84.0176 88.944 84.0176 87.472C84.0176 86.032 83.9056 84.768 83.6816 83.68C83.4576 82.56 83.1216 81.616 82.6736 80.848C82.2576 80.08 81.7136 79.504 81.0416 79.12C80.4016 78.704 79.6496 78.496 78.7856 78.496C77.7616 78.496 76.8176 78.768 75.9536 79.312C75.1216 79.824 74.3376 80.608 73.6016 81.664C72.8656 82.688 72.1136 83.984 71.3456 85.552L71.1056 81.712C72.0016 80.144 72.8976 78.864 73.7936 77.872C74.7216 76.88 75.7136 76.144 76.7696 75.664C77.8576 75.152 79.1216 74.896 80.5616 74.896C82.7376 74.896 84.6416 75.424 86.2736 76.48C87.9376 77.536 89.2336 79.008 90.1616 80.896C91.0896 82.752 91.5536 84.944 91.5536 87.472C91.5536 90.032 91.0576 92.288 90.0656 94.24C89.1056 96.192 87.7616 97.728 86.0336 98.848C84.3376 99.936 82.3536 100.48 80.0816 100.48ZM65.5376 69.04C65.5376 68.624 65.4416 68.32 65.2496 68.128C65.0576 67.904 64.7696 67.728 64.3856 67.6C64.0336 67.472 63.5376 67.344 62.8976 67.216L62.4656 67.12V64.576H72.7856V94.672L72.0176 95.056L69.9056 100.096H65.5376V69.04ZM104.378 75.376V92.32C104.378 93.28 104.474 94.08 104.666 94.72C104.89 95.36 105.226 95.824 105.674 96.112C106.154 96.4 106.762 96.544 107.498 96.544C108.33 96.544 109.114 96.352 109.85 95.968C110.586 95.552 111.29 94.944 111.962 94.144C112.634 93.312 113.29 92.272 113.93 91.024L114.122 94.576C113.418 95.856 112.618 96.944 111.722 97.84C110.826 98.704 109.818 99.36 108.698 99.808C107.61 100.256 106.394 100.48 105.05 100.48C103.45 100.48 102.058 100.192 100.874 99.616C99.6902 99.008 98.7622 98.096 98.0902 96.88C97.4502 95.664 97.1302 94.16 97.1302 92.368V79.84C97.1302 79.264 96.9222 78.864 96.5062 78.64C96.0902 78.416 95.4342 78.224 94.5382 78.064L94.0582 77.968V75.376H104.378ZM120.314 75.376V95.872C120.314 96.256 120.426 96.56 120.65 96.784C120.906 96.976 121.242 97.12 121.658 97.216C122.074 97.312 122.57 97.376 123.146 97.408L123.386 97.456V100H113.546V94.672L113.018 94.624V79.84C113.018 79.264 112.762 78.864 112.25 78.64C111.77 78.384 111.066 78.208 110.138 78.112L109.274 77.968V75.376H120.314ZM140.356 97.312C141.604 97.312 142.676 97.056 143.572 96.544C144.5 96 145.284 95.344 145.924 94.576C146.596 93.776 147.156 92.976 147.604 92.176L150.052 94.096C149.38 95.312 148.548 96.416 147.556 97.408C146.596 98.368 145.444 99.12 144.1 99.664C142.756 100.208 141.156 100.48 139.3 100.48C136.708 100.48 134.388 99.952 132.34 98.896C130.324 97.84 128.74 96.352 127.588 94.432C126.468 92.512 125.908 90.272 125.908 87.712C125.908 85.088 126.484 82.832 127.636 80.944C128.788 79.024 130.404 77.536 132.484 76.48C134.564 75.424 136.98 74.896 139.732 74.896C141.46 74.896 142.98 75.072 144.292 75.424C145.604 75.744 146.692 76.128 147.556 76.576C148.452 77.024 149.108 77.424 149.524 77.776V83.92H143.716V78.016C144.068 78.048 144.372 78.16 144.628 78.352C144.884 78.512 145.076 78.736 145.204 79.024C145.364 79.28 145.444 79.552 145.444 79.84C145.476 80.128 145.412 80.4 145.252 80.656C144.836 79.92 144.164 79.296 143.236 78.784C142.308 78.272 141.252 78.016 140.068 78.016C138.628 78.016 137.412 78.416 136.42 79.216C135.428 79.984 134.676 81.088 134.164 82.528C133.652 83.968 133.396 85.696 133.396 87.712C133.396 89.184 133.556 90.512 133.876 91.696C134.196 92.88 134.644 93.888 135.22 94.72C135.796 95.552 136.516 96.192 137.38 96.64C138.244 97.088 139.236 97.312 140.356 97.312ZM182.471 100H168.599V97.504H168.695C169.015 97.504 169.367 97.488 169.751 97.456C170.167 97.424 170.519 97.376 170.807 97.312C171.095 97.248 171.239 97.168 171.239 97.072L164.087 87.472V86.704L172.823 78.784C172.823 78.528 172.615 78.352 172.199 78.256C171.815 78.128 171.351 78.032 170.807 77.968C170.263 77.904 169.767 77.872 169.319 77.872H168.983V75.376H180.743V77.872H180.647C180.071 77.872 179.495 77.952 178.919 78.112C178.343 78.272 177.783 78.512 177.239 78.832C176.727 79.152 176.215 79.536 175.703 79.984L168.359 86.704L169.511 83.728L178.631 95.824C178.983 96.24 179.351 96.576 179.735 96.832C180.151 97.088 180.583 97.264 181.031 97.36C181.511 97.456 181.975 97.504 182.423 97.504H182.471V100ZM163.079 64.576V96.976C163.079 97.104 163.223 97.216 163.511 97.312C163.799 97.376 164.135 97.424 164.519 97.456C164.935 97.488 165.319 97.504 165.671 97.504H165.767V100H152.759V97.504H152.807C153.671 97.504 154.375 97.408 154.919 97.216C155.495 96.992 155.783 96.576 155.783 95.968V69.04C155.783 68.624 155.687 68.32 155.495 68.128C155.335 67.904 155.063 67.728 154.679 67.6C154.295 67.472 153.799 67.344 153.191 67.216L152.759 67.12V64.576H163.079ZM191.209 71.296C189.961 71.296 188.953 70.976 188.185 70.336C187.449 69.696 187.081 68.816 187.081 67.696C187.081 66.576 187.449 65.696 188.185 65.056C188.953 64.416 189.961 64.096 191.209 64.096C192.457 64.096 193.449 64.416 194.185 65.056C194.953 65.696 195.337 66.576 195.337 67.696C195.337 68.816 194.953 69.696 194.185 70.336C193.449 70.976 192.457 71.296 191.209 71.296ZM195.001 75.376V95.968C195.001 96.576 195.273 96.992 195.817 97.216C196.393 97.408 197.113 97.504 197.977 97.504H198.025V100H184.681V97.504H184.729C185.593 97.504 186.297 97.408 186.841 97.216C187.417 96.992 187.705 96.576 187.705 95.968V79.84C187.705 79.264 187.497 78.88 187.081 78.688C186.665 78.464 186.009 78.256 185.113 78.064L184.681 77.968V75.376H195.001ZM200.29 100V97.504H200.338C200.914 97.504 201.426 97.472 201.874 97.408C202.322 97.312 202.674 97.152 202.93 96.928C203.186 96.704 203.314 96.384 203.314 95.968V79.84C203.314 79.456 203.218 79.168 203.026 78.976C202.834 78.752 202.546 78.576 202.162 78.448C201.778 78.32 201.298 78.192 200.722 78.064L200.29 77.968V75.376H210.082V80.608L210.562 80.8V97.072C210.562 97.168 210.706 97.248 210.994 97.312C211.282 97.376 211.618 97.424 212.002 97.456C212.418 97.488 212.802 97.504 213.154 97.504H213.298V100H200.29ZM229.714 100H216.706V97.504H216.754C217.106 97.504 217.49 97.488 217.906 97.456C218.322 97.424 218.674 97.376 218.962 97.312C219.25 97.248 219.394 97.168 219.394 97.072V83.008C219.394 82.048 219.282 81.264 219.058 80.656C218.866 80.048 218.546 79.6 218.098 79.312C217.65 78.992 217.042 78.832 216.274 78.832C215.41 78.832 214.578 79.056 213.778 79.504C213.01 79.92 212.29 80.544 211.618 81.376C210.946 82.208 210.306 83.232 209.698 84.448L209.506 80.8C210.242 79.552 211.042 78.496 211.906 77.632C212.802 76.736 213.81 76.064 214.93 75.616C216.082 75.136 217.346 74.896 218.722 74.896C220.322 74.896 221.714 75.2 222.898 75.808C224.114 76.416 225.042 77.312 225.682 78.496C226.354 79.68 226.69 81.184 226.69 83.008V95.968C226.69 96.384 226.818 96.704 227.074 96.928C227.33 97.152 227.666 97.312 228.082 97.408C228.53 97.472 229.042 97.504 229.618 97.504H229.714V100ZM259.291 79.744C258.011 79.552 256.891 79.424 255.931 79.36C254.971 79.296 254.139 79.328 253.435 79.456C252.731 79.552 252.155 79.792 251.707 80.176L250.939 79.648C251.419 78.72 251.947 77.92 252.523 77.248C253.099 76.544 253.723 75.968 254.395 75.52C255.099 75.04 255.851 74.72 256.651 74.56C257.451 74.368 258.331 74.336 259.291 74.464V79.744ZM244.171 92.32C242.059 92.32 240.187 91.984 238.555 91.312C236.923 90.608 235.643 89.616 234.715 88.336C233.819 87.024 233.371 85.488 233.371 83.728C233.371 81.936 233.835 80.384 234.763 79.072C235.691 77.76 236.955 76.736 238.555 76C240.187 75.264 242.059 74.896 244.171 74.896C246.315 74.896 248.203 75.264 249.835 76C251.467 76.736 252.747 77.76 253.675 79.072C254.603 80.384 255.067 81.936 255.067 83.728C255.067 85.488 254.603 87.024 253.675 88.336C252.747 89.616 251.467 90.608 249.835 91.312C248.203 91.984 246.315 92.32 244.171 92.32ZM244.171 89.488C245.035 89.488 245.771 89.28 246.379 88.864C246.987 88.448 247.451 87.824 247.771 86.992C248.123 86.128 248.299 85.04 248.299 83.728C248.299 82.416 248.123 81.328 247.771 80.464C247.451 79.6 246.987 78.96 246.379 78.544C245.771 78.096 245.035 77.872 244.171 77.872C243.371 77.872 242.667 78.096 242.059 78.544C241.451 78.96 240.971 79.6 240.619 80.464C240.299 81.328 240.139 82.416 240.139 83.728C240.139 85.04 240.299 86.128 240.619 86.992C240.971 87.824 241.451 88.448 242.059 88.864C242.667 89.28 243.371 89.488 244.171 89.488ZM242.875 111.424C240.571 111.424 238.507 111.232 236.683 110.848C234.859 110.464 233.419 109.84 232.363 108.976C231.339 108.112 230.827 106.976 230.827 105.568C230.827 104.768 231.051 104.048 231.499 103.408C231.979 102.8 232.715 102.24 233.707 101.728C234.699 101.248 235.995 100.768 237.595 100.288L239.179 101.584C238.475 101.872 237.899 102.208 237.451 102.592C237.035 102.976 236.715 103.376 236.491 103.792C236.299 104.208 236.203 104.672 236.203 105.184C236.203 105.856 236.459 106.432 236.971 106.912C237.483 107.424 238.267 107.808 239.323 108.064C240.379 108.32 241.755 108.448 243.451 108.448H244.891C246.555 108.448 247.979 108.272 249.163 107.92C250.347 107.568 251.243 107.088 251.851 106.48C252.491 105.872 252.811 105.184 252.811 104.416C252.811 103.68 252.539 103.136 251.995 102.784C251.451 102.464 250.459 102.304 249.019 102.304H237.067L236.875 101.776C235.851 101.328 235.003 100.848 234.331 100.336C233.691 99.824 233.211 99.248 232.891 98.608C232.603 97.968 232.459 97.248 232.459 96.448C232.459 95.552 232.699 94.72 233.179 93.952C233.659 93.184 234.363 92.48 235.291 91.84C236.219 91.2 237.355 90.624 238.699 90.112L241.003 91.264C240.331 91.552 239.739 91.856 239.227 92.176C238.747 92.496 238.379 92.832 238.123 93.184C237.899 93.536 237.787 93.936 237.787 94.384C237.787 94.992 238.059 95.44 238.603 95.728C239.179 95.984 240.027 96.112 241.147 96.112H249.307C251.355 96.112 253.067 96.352 254.443 96.832C255.851 97.28 256.907 97.984 257.611 98.944C258.347 99.904 258.715 101.088 258.715 102.496C258.715 104.512 258.107 106.176 256.891 107.488C255.707 108.8 254.091 109.776 252.043 110.416C249.995 111.088 247.691 111.424 245.131 111.424H242.875ZM271.22 64.576V96.976C271.22 97.104 271.348 97.216 271.604 97.312C271.892 97.376 272.244 97.424 272.66 97.456C273.076 97.488 273.46 97.504 273.812 97.504H273.908V100H260.9V97.504H260.948C261.524 97.504 262.036 97.472 262.484 97.408C262.932 97.312 263.284 97.152 263.54 96.928C263.796 96.704 263.924 96.384 263.924 95.968V69.04C263.924 68.624 263.828 68.32 263.636 68.128C263.476 67.904 263.204 67.728 262.82 67.6C262.436 67.472 261.94 67.344 261.332 67.216L260.9 67.12V64.576H271.22ZM290.324 100H277.316V97.504H277.412C277.732 97.504 278.1 97.488 278.516 97.456C278.932 97.424 279.284 97.376 279.572 97.312C279.892 97.248 280.052 97.168 280.052 97.072V83.008C280.052 82.048 279.94 81.264 279.716 80.656C279.524 80.048 279.188 79.6 278.708 79.312C278.26 78.992 277.652 78.832 276.884 78.832C276.02 78.832 275.204 79.056 274.436 79.504C273.668 79.92 272.948 80.544 272.276 81.376C271.604 82.208 270.948 83.216 270.308 84.4L270.164 80.8C270.868 79.552 271.668 78.496 272.564 77.632C273.46 76.736 274.468 76.064 275.588 75.616C276.708 75.136 277.956 74.896 279.332 74.896C280.964 74.896 282.372 75.2 283.556 75.808C284.74 76.416 285.652 77.312 286.292 78.496C286.964 79.68 287.3 81.184 287.3 83.008V95.968C287.3 96.576 287.588 96.992 288.164 97.216C288.74 97.408 289.444 97.504 290.276 97.504H290.324V100ZM309.006 85.216L308.958 87.76C307.71 87.888 306.59 88.08 305.598 88.336C304.606 88.56 303.742 88.848 303.006 89.2C302.27 89.52 301.662 89.904 301.182 90.352C300.734 90.8 300.382 91.312 300.126 91.888C299.902 92.432 299.79 93.04 299.79 93.712C299.79 94.48 299.918 95.136 300.174 95.68C300.462 96.192 300.862 96.592 301.374 96.88C301.918 97.168 302.526 97.312 303.198 97.312C304.062 97.312 304.83 97.088 305.502 96.64C306.206 96.192 306.83 95.568 307.374 94.768C307.918 93.968 308.398 93.024 308.814 91.936L309.006 94.816C308.558 96 307.95 97.024 307.182 97.888C306.414 98.72 305.486 99.36 304.398 99.808C303.342 100.256 302.126 100.48 300.75 100.48C299.182 100.48 297.806 100.24 296.622 99.76C295.47 99.248 294.558 98.512 293.886 97.552C293.214 96.56 292.878 95.36 292.878 93.952C292.878 92.64 293.214 91.504 293.886 90.544C294.59 89.552 295.614 88.72 296.958 88.048C298.334 87.376 300.014 86.816 301.998 86.368C304.014 85.888 306.35 85.504 309.006 85.216ZM308.334 100V95.2H307.806V82.336C307.806 81.28 307.662 80.432 307.374 79.792C307.086 79.152 306.638 78.688 306.03 78.4C305.454 78.112 304.734 77.968 303.87 77.968C302.558 77.968 301.47 78.24 300.606 78.784C299.774 79.328 299.118 80 298.638 80.8C298.478 80.416 298.398 80.08 298.398 79.792C298.43 79.472 298.526 79.184 298.686 78.928C298.846 78.672 299.07 78.448 299.358 78.256C299.678 78.064 300.03 77.92 300.414 77.824V83.056H294.51V77.968C294.99 77.616 295.678 77.2 296.574 76.72C297.47 76.24 298.59 75.824 299.934 75.472C301.278 75.088 302.83 74.896 304.59 74.896C306.062 74.896 307.422 75.056 308.67 75.376C309.918 75.696 311.006 76.176 311.934 76.816C312.894 77.456 313.63 78.304 314.142 79.36C314.654 80.384 314.91 81.648 314.91 83.152V95.872C314.91 96.256 315.022 96.56 315.246 96.784C315.502 96.976 315.838 97.12 316.254 97.216C316.702 97.312 317.214 97.376 317.79 97.408L317.934 97.456V100H308.334ZM319.915 100V97.504H319.963C320.827 97.504 321.531 97.408 322.075 97.216C322.651 96.992 322.939 96.576 322.939 95.968V79.84C322.939 79.456 322.843 79.168 322.651 78.976C322.491 78.784 322.203 78.624 321.787 78.496C321.403 78.336 320.923 78.192 320.347 78.064L319.915 77.968V75.376H329.659V80.656L330.187 80.8V97.072C330.187 97.168 330.315 97.248 330.571 97.312C330.827 97.376 331.131 97.424 331.483 97.456C331.867 97.488 332.203 97.504 332.491 97.504H332.587V100H319.915ZM347.515 100H335.323V97.504H335.419C335.739 97.504 336.075 97.488 336.427 97.456C336.811 97.424 337.131 97.376 337.387 97.312C337.675 97.248 337.819 97.168 337.819 97.072V83.056C337.819 82.096 337.739 81.312 337.579 80.704C337.419 80.064 337.147 79.6 336.763 79.312C336.411 78.992 335.899 78.832 335.227 78.832C334.459 78.832 333.739 79.04 333.067 79.456C332.427 79.84 331.787 80.432 331.147 81.232C330.539 82.032 329.931 83.072 329.323 84.352L329.131 80.704C329.835 79.456 330.603 78.416 331.435 77.584C332.267 76.72 333.195 76.064 334.219 75.616C335.275 75.136 336.443 74.896 337.723 74.896C339.195 74.896 340.475 75.2 341.563 75.808C342.683 76.416 343.547 77.312 344.155 78.496C344.763 79.68 345.067 81.184 345.067 83.008V96.976C345.067 97.104 345.195 97.216 345.451 97.312C345.739 97.376 346.059 97.424 346.411 97.456C346.795 97.488 347.147 97.504 347.467 97.504H347.515V100ZM363.067 100H350.299V97.504H350.395C350.715 97.504 351.051 97.488 351.403 97.456C351.755 97.424 352.059 97.376 352.315 97.312C352.571 97.248 352.699 97.168 352.699 97.072V83.056C352.699 82.096 352.619 81.312 352.459 80.704C352.299 80.064 352.027 79.6 351.643 79.312C351.291 78.992 350.779 78.832 350.107 78.832C349.339 78.832 348.619 79.04 347.947 79.456C347.275 79.872 346.635 80.48 346.027 81.28C345.419 82.08 344.811 83.088 344.203 84.304L344.059 80.704C344.763 79.456 345.531 78.416 346.363 77.584C347.195 76.72 348.123 76.064 349.147 75.616C350.171 75.136 351.323 74.896 352.603 74.896C354.075 74.896 355.355 75.2 356.443 75.808C357.563 76.416 358.427 77.312 359.035 78.496C359.643 79.68 359.947 81.184 359.947 83.008V95.968C359.947 96.576 360.235 96.992 360.811 97.216C361.387 97.408 362.091 97.504 362.923 97.504H363.067V100Z" fill="#838383" fill-opacity="0.68"/>
</g>
<defs>
<filter id="filter0_i_8_14" x="1.78269" y="8.09595" width="361.285" height="107.328" filterUnits="userSpaceOnUse" color-interpolation-filters="sRGB">
<feFlood flood-opacity="0" result="BackgroundImageFix"/>
<feBlend mode="normal" in="SourceGraphic" in2="BackgroundImageFix" result="shape"/>
<feColorMatrix in="SourceAlpha" type="matrix" values="0 0 0 0 0 0 0 0 0 0 0 0 0 0 0 0 0 0 127 0" result="hardAlpha"/>
<feOffset dy="4"/>
<feGaussianBlur stdDeviation="2"/>
<feComposite in2="hardAlpha" operator="arithmetic" k2="-1" k3="1"/>
<feColorMatrix type="matrix" values="0 0 0 0 0 0 0 0 0 0 0 0 0 0 0 0 0 0 0.25 0"/>
<feBlend mode="normal" in2="shape" result="effect1_innerShadow_8_14"/>
</filter>
</defs>
</svg>
