<svg width="280" height="82" viewBox="0 0 280 82" fill="none" xmlns="http://www.w3.org/2000/svg">
<g filter="url(#filter0_i_8_13)">
<path d="M100.358 38.9893V58.7109C99.5837 59.6452 98.3874 60.6592 96.7695 61.7529C95.1517 62.8239 93.0667 63.7467 90.5146 64.5215C87.9626 65.2962 84.875 65.6836 81.252 65.6836C78.0391 65.6836 75.111 65.1595 72.4678 64.1113C69.8245 63.0404 67.5459 61.4795 65.6318 59.4287C63.7406 57.3779 62.2822 54.8714 61.2568 51.9092C60.2314 48.9242 59.7188 45.5176 59.7188 41.6895V38.5791C59.7188 34.751 60.2087 31.3444 61.1885 28.3594C62.1911 25.3743 63.6152 22.8564 65.4609 20.8057C67.3066 18.7549 69.5055 17.194 72.0576 16.123C74.6097 15.0521 77.4466 14.5166 80.5684 14.5166C84.8978 14.5166 88.4525 15.223 91.2324 16.6357C94.0124 18.0257 96.1315 19.9626 97.5898 22.4463C99.071 24.9072 99.9824 27.7327 100.324 30.9229H90.3779C90.1273 29.2367 89.6488 27.7669 88.9424 26.5137C88.236 25.2604 87.222 24.2806 85.9004 23.5742C84.6016 22.8678 82.9154 22.5146 80.8418 22.5146C79.1328 22.5146 77.6061 22.8678 76.2617 23.5742C74.9401 24.2578 73.8236 25.2718 72.9121 26.6162C72.0007 27.9606 71.3057 29.624 70.8271 31.6064C70.3486 33.5889 70.1094 35.8903 70.1094 38.5107V41.6895C70.1094 44.2871 70.36 46.5885 70.8613 48.5938C71.3626 50.5762 72.1032 52.251 73.083 53.6182C74.0856 54.9626 75.3161 55.9766 76.7744 56.6602C78.2327 57.3438 79.9303 57.6855 81.8672 57.6855C83.485 57.6855 84.8294 57.5488 85.9004 57.2754C86.9941 57.002 87.8714 56.6715 88.5322 56.2842C89.2158 55.874 89.7399 55.4867 90.1045 55.1221V46.3037H80.7393V38.9893H100.358ZM106.442 46.8848V46.167C106.442 43.4554 106.83 40.9603 107.604 38.6816C108.379 36.3802 109.507 34.3864 110.988 32.7002C112.469 31.014 114.292 29.7038 116.457 28.7695C118.622 27.8125 121.105 27.334 123.908 27.334C126.711 27.334 129.206 27.8125 131.394 28.7695C133.581 29.7038 135.415 31.014 136.896 32.7002C138.4 34.3864 139.54 36.3802 140.314 38.6816C141.089 40.9603 141.477 43.4554 141.477 46.167V46.8848C141.477 49.5736 141.089 52.0687 140.314 54.3701C139.54 56.6488 138.4 58.6426 136.896 60.3516C135.415 62.0378 133.592 63.348 131.428 64.2822C129.263 65.2165 126.779 65.6836 123.977 65.6836C121.174 65.6836 118.679 65.2165 116.491 64.2822C114.326 63.348 112.492 62.0378 110.988 60.3516C109.507 58.6426 108.379 56.6488 107.604 54.3701C106.83 52.0687 106.442 49.5736 106.442 46.8848ZM116.286 46.167V46.8848C116.286 48.4342 116.423 49.8812 116.696 51.2256C116.97 52.57 117.403 53.7549 117.995 54.7803C118.61 55.7829 119.408 56.569 120.388 57.1387C121.368 57.7083 122.564 57.9932 123.977 57.9932C125.344 57.9932 126.517 57.7083 127.497 57.1387C128.477 56.569 129.263 55.7829 129.855 54.7803C130.448 53.7549 130.881 52.57 131.154 51.2256C131.451 49.8812 131.599 48.4342 131.599 46.8848V46.167C131.599 44.6631 131.451 43.2503 131.154 41.9287C130.881 40.5843 130.437 39.3994 129.821 38.374C129.229 37.3258 128.443 36.5055 127.463 35.9131C126.483 35.3206 125.298 35.0244 123.908 35.0244C122.518 35.0244 121.333 35.3206 120.354 35.9131C119.396 36.5055 118.61 37.3258 117.995 38.374C117.403 39.3994 116.97 40.5843 116.696 41.9287C116.423 43.2503 116.286 44.6631 116.286 46.167ZM145.954 46.8848V46.167C145.954 43.4554 146.341 40.9603 147.116 38.6816C147.891 36.3802 149.019 34.3864 150.5 32.7002C151.981 31.014 153.804 29.7038 155.969 28.7695C158.133 27.8125 160.617 27.334 163.42 27.334C166.223 27.334 168.718 27.8125 170.905 28.7695C173.093 29.7038 174.927 31.014 176.408 32.7002C177.912 34.3864 179.051 36.3802 179.826 38.6816C180.601 40.9603 180.988 43.4554 180.988 46.167V46.8848C180.988 49.5736 180.601 52.0687 179.826 54.3701C179.051 56.6488 177.912 58.6426 176.408 60.3516C174.927 62.0378 173.104 63.348 170.939 64.2822C168.775 65.2165 166.291 65.6836 163.488 65.6836C160.686 65.6836 158.19 65.2165 156.003 64.2822C153.838 63.348 152.004 62.0378 150.5 60.3516C149.019 58.6426 147.891 56.6488 147.116 54.3701C146.341 52.0687 145.954 49.5736 145.954 46.8848ZM155.798 46.167V46.8848C155.798 48.4342 155.935 49.8812 156.208 51.2256C156.481 52.57 156.914 53.7549 157.507 54.7803C158.122 55.7829 158.92 56.569 159.899 57.1387C160.879 57.7083 162.076 57.9932 163.488 57.9932C164.855 57.9932 166.029 57.7083 167.009 57.1387C167.989 56.569 168.775 55.7829 169.367 54.7803C169.96 53.7549 170.393 52.57 170.666 51.2256C170.962 49.8812 171.11 48.4342 171.11 46.8848V46.167C171.11 44.6631 170.962 43.2503 170.666 41.9287C170.393 40.5843 169.948 39.3994 169.333 38.374C168.741 37.3258 167.954 36.5055 166.975 35.9131C165.995 35.3206 164.81 35.0244 163.42 35.0244C162.03 35.0244 160.845 35.3206 159.865 35.9131C158.908 36.5055 158.122 37.3258 157.507 38.374C156.914 39.3994 156.481 40.5843 156.208 41.9287C155.935 43.2503 155.798 44.6631 155.798 46.167ZM210.451 28.0176H219.372V63.7695C219.372 67.1419 218.62 70.0016 217.116 72.3486C215.635 74.7184 213.562 76.5072 210.896 77.7148C208.229 78.9453 205.131 79.5605 201.599 79.5605C200.049 79.5605 198.409 79.3555 196.677 78.9453C194.968 78.5352 193.327 77.8971 191.755 77.0312C190.205 76.1654 188.907 75.0716 187.858 73.75L192.199 67.9395C193.339 69.2611 194.66 70.2865 196.164 71.0156C197.668 71.7676 199.331 72.1436 201.154 72.1436C202.932 72.1436 204.436 71.8132 205.666 71.1523C206.896 70.5143 207.842 69.5687 208.503 68.3154C209.164 67.085 209.494 65.5924 209.494 63.8379V36.5625L210.451 28.0176ZM185.568 46.9531V46.2354C185.568 43.4098 185.91 40.8464 186.594 38.5449C187.3 36.2207 188.291 34.2269 189.567 32.5635C190.866 30.9001 192.438 29.6126 194.284 28.7012C196.13 27.7897 198.215 27.334 200.539 27.334C203 27.334 205.062 27.7897 206.726 28.7012C208.389 29.6126 209.756 30.9115 210.827 32.5977C211.898 34.2611 212.73 36.2321 213.322 38.5107C213.938 40.7666 214.416 43.2389 214.758 45.9277V47.5C214.416 50.0749 213.903 52.4674 213.22 54.6777C212.536 56.888 211.636 58.8249 210.52 60.4883C209.403 62.1289 208.013 63.4049 206.35 64.3164C204.709 65.2279 202.749 65.6836 200.471 65.6836C198.192 65.6836 196.13 65.2165 194.284 64.2822C192.461 63.348 190.9 62.0378 189.602 60.3516C188.303 58.6654 187.3 56.6829 186.594 54.4043C185.91 52.1257 185.568 49.6419 185.568 46.9531ZM195.412 46.2354V46.9531C195.412 48.4798 195.56 49.904 195.856 51.2256C196.153 52.5472 196.608 53.7207 197.224 54.7461C197.862 55.7487 198.648 56.5348 199.582 57.1045C200.539 57.6514 201.667 57.9248 202.966 57.9248C204.766 57.9248 206.236 57.5488 207.375 56.7969C208.514 56.0221 209.369 54.9626 209.938 53.6182C210.508 52.2738 210.839 50.7243 210.93 48.9697V44.4922C210.884 43.0566 210.69 41.7692 210.349 40.6299C210.007 39.4678 209.528 38.4766 208.913 37.6562C208.298 36.8359 207.5 36.1979 206.521 35.7422C205.541 35.2865 204.379 35.0586 203.034 35.0586C201.735 35.0586 200.607 35.3548 199.65 35.9473C198.716 36.5169 197.93 37.3031 197.292 38.3057C196.677 39.3083 196.21 40.4932 195.891 41.8604C195.572 43.2048 195.412 44.6631 195.412 46.2354ZM237.419 12.5V65H227.541V12.5H237.419ZM262.575 65.6836C259.704 65.6836 257.129 65.2279 254.851 64.3164C252.572 63.3822 250.635 62.0947 249.04 60.4541C247.468 58.8135 246.26 56.9108 245.417 54.7461C244.574 52.5586 244.152 50.2344 244.152 47.7734V46.4062C244.152 43.6035 244.551 41.04 245.349 38.7158C246.146 36.3916 247.285 34.375 248.767 32.666C250.271 30.957 252.093 29.6468 254.235 28.7354C256.377 27.8011 258.793 27.334 261.481 27.334C264.102 27.334 266.426 27.7669 268.454 28.6328C270.482 29.4987 272.18 30.7292 273.547 32.3242C274.937 33.9193 275.985 35.8333 276.691 38.0664C277.398 40.2767 277.751 42.7376 277.751 45.4492V49.5508H248.356V42.9883H268.078V42.2363C268.078 40.8691 267.827 39.6501 267.326 38.5791C266.848 37.4854 266.118 36.6195 265.139 35.9814C264.159 35.3434 262.906 35.0244 261.379 35.0244C260.08 35.0244 258.964 35.3092 258.029 35.8789C257.095 36.4486 256.332 37.2461 255.739 38.2715C255.17 39.2969 254.737 40.5046 254.44 41.8945C254.167 43.2617 254.03 44.7656 254.03 46.4062V47.7734C254.03 49.2546 254.235 50.6217 254.646 51.875C255.078 53.1283 255.682 54.2106 256.457 55.1221C257.255 56.0335 258.212 56.7399 259.328 57.2412C260.467 57.7425 261.755 57.9932 263.19 57.9932C264.968 57.9932 266.62 57.6514 268.146 56.9678C269.696 56.2614 271.029 55.2018 272.146 53.7891L276.931 58.9844C276.156 60.1009 275.096 61.1719 273.752 62.1973C272.43 63.2227 270.835 64.0658 268.967 64.7266C267.098 65.3646 264.968 65.6836 262.575 65.6836Z" fill="#838383" fill-opacity="0.68"/>
</g>
<g clip-path="url(#clip0_8_13)">
<path d="M49.88 42.0518C49.88 40.3293 49.7283 38.673 49.4467 37.083H27V46.4795H39.8267C39.2742 49.5159 37.595 52.0886 35.0708 53.8111V59.9061H42.7733C47.28 55.6772 49.88 49.4497 49.88 42.0518V42.0518Z" fill="#4285F4"/>
<path d="M27 65.7915C33.435 65.7915 38.83 63.6163 42.7733 59.9063L35.0708 53.8113C32.9367 55.2688 30.2067 56.13 27 56.13C20.7925 56.13 15.5383 51.8569 13.6642 46.1152H5.70166V52.409C9.62333 60.3479 17.6833 65.7915 27 65.7915Z" fill="#34A853"/>
<path d="M13.6641 46.1154C13.1875 44.6579 12.9166 43.101 12.9166 41.5C12.9166 39.8989 13.1875 38.3421 13.6641 36.8846V30.5908H5.70163C4.03329 33.9759 3.16516 37.7118 3.16663 41.5C3.16663 45.4198 4.08746 49.1298 5.70163 52.4092L13.6641 46.1154V46.1154Z" fill="#FBBC05"/>
<path d="M27 26.8695C30.4992 26.8695 33.6408 28.0951 36.1108 30.5022L42.9467 23.5349C38.8192 19.6151 33.4242 17.208 27 17.208C17.6833 17.208 9.62333 22.6515 5.70166 30.5905L13.6642 36.8843C15.5383 31.1426 20.7925 26.8695 27 26.8695Z" fill="#EA4335"/>
</g>
<defs>
<filter id="filter0_i_8_13" x="59.7188" y="12.5" width="218.032" height="71.0605" filterUnits="userSpaceOnUse" color-interpolation-filters="sRGB">
<feFlood flood-opacity="0" result="BackgroundImageFix"/>
<feBlend mode="normal" in="SourceGraphic" in2="BackgroundImageFix" result="shape"/>
<feColorMatrix in="SourceAlpha" type="matrix" values="0 0 0 0 0 0 0 0 0 0 0 0 0 0 0 0 0 0 127 0" result="hardAlpha"/>
<feOffset dy="4"/>
<feGaussianBlur stdDeviation="2"/>
<feComposite in2="hardAlpha" operator="arithmetic" k2="-1" k3="1"/>
<feColorMatrix type="matrix" values="0 0 0 0 0 0 0 0 0 0 0 0 0 0 0 0 0 0 0.25 0"/>
<feBlend mode="normal" in2="shape" result="effect1_innerShadow_8_13"/>
</filter>
<clipPath id="clip0_8_13">
<rect width="52" height="53" fill="white" transform="translate(0 18)"/>
</clipPath>
</defs>
</svg>
