<svg width="317" height="75" viewBox="0 0 317 75" fill="none" xmlns="http://www.w3.org/2000/svg">
<g filter="url(#filter0_i_8_15)">
<path d="M70.1925 40.056H88.1125L88.1765 43.896H69.6805L70.1925 40.056ZM77.8085 17.848L79.6005 19.576L67.8245 54.52C67.8245 54.7333 67.9952 54.9467 68.3365 55.16C68.7205 55.3307 69.2112 55.4587 69.8085 55.544C70.4485 55.6293 71.1525 55.672 71.9205 55.672H73.0085V59H59.8245V55.672H60.2085C61.1472 55.672 61.9152 55.48 62.5125 55.096C63.1098 54.712 63.6005 53.944 63.9845 52.792L77.3605 13.56H86.6405L100.401 53.816C100.699 54.584 101.147 55.096 101.745 55.352C102.342 55.5653 103.067 55.672 103.921 55.672H104.241V59H85.1045V55.672H86.1285C86.7685 55.672 87.4085 55.6507 88.0485 55.608C88.7312 55.5653 89.2858 55.5013 89.7125 55.416C90.1392 55.288 90.3525 55.16 90.3525 55.032L77.8085 17.848ZM106.542 59V55.864H106.67C107.779 55.864 108.697 55.736 109.422 55.48C110.19 55.224 110.574 54.6693 110.574 53.816V31.864C110.574 31.3093 110.446 30.904 110.19 30.648C109.977 30.392 109.614 30.1787 109.102 30.008C108.59 29.7947 107.95 29.624 107.182 29.496L106.542 29.368V26.104H119.598V33.08L120.238 33.272V55.288C120.238 55.416 120.409 55.5227 120.75 55.608C121.134 55.6933 121.561 55.7573 122.03 55.8C122.499 55.8427 122.926 55.864 123.31 55.864H123.438V59H106.542ZM143.342 59H127.15V55.864H127.214C127.683 55.864 128.153 55.8427 128.622 55.8C129.134 55.7573 129.561 55.6933 129.902 55.608C130.286 55.5227 130.478 55.416 130.478 55.288V36.216C130.478 34.8933 130.35 33.8267 130.094 33.016C129.881 32.1627 129.518 31.544 129.006 31.16C128.537 30.7333 127.854 30.52 126.958 30.52C125.977 30.52 125.038 30.7973 124.142 31.352C123.246 31.864 122.393 32.6533 121.582 33.72C120.771 34.7867 119.961 36.152 119.15 37.816L118.766 33.4C119.705 31.6933 120.729 30.264 121.838 29.112C122.99 27.9173 124.249 27.0213 125.614 26.424C127.022 25.784 128.579 25.464 130.286 25.464C132.249 25.464 133.977 25.8693 135.47 26.68C136.963 27.448 138.115 28.6427 138.926 30.264C139.737 31.8427 140.142 33.848 140.142 36.28V55.16C140.142 55.3307 140.313 55.48 140.654 55.608C140.995 55.6933 141.401 55.7573 141.87 55.8C142.382 55.8427 142.851 55.864 143.278 55.864H143.342V59ZM164.142 59H147.118V55.864H147.246C147.673 55.864 148.121 55.8427 148.59 55.8C149.059 55.7573 149.465 55.6933 149.806 55.608C150.147 55.5227 150.318 55.416 150.318 55.288V36.216C150.318 34.8933 150.211 33.8267 149.998 33.016C149.785 32.1627 149.422 31.544 148.91 31.16C148.441 30.7333 147.758 30.52 146.862 30.52C145.838 30.52 144.878 30.7973 143.982 31.352C143.086 31.9067 142.233 32.7173 141.422 33.784C140.611 34.8507 139.801 36.1733 138.99 37.752L138.67 33.336C139.609 31.672 140.633 30.264 141.742 29.112C142.894 27.9173 144.153 27.0213 145.518 26.424C146.926 25.784 148.483 25.464 150.19 25.464C152.153 25.464 153.859 25.8693 155.31 26.68C156.803 27.448 157.955 28.6427 158.766 30.264C159.619 31.8427 160.046 33.848 160.046 36.28V53.816C160.046 54.6693 160.409 55.224 161.134 55.48C161.902 55.736 162.841 55.864 163.95 55.864H164.142V59ZM189.058 39.288V42.488C187.351 42.6587 185.837 42.9147 184.514 43.256C183.191 43.5547 182.039 43.9387 181.058 44.408C180.077 44.8773 179.266 45.4107 178.626 46.008C177.986 46.5627 177.517 47.224 177.218 47.992C176.919 48.76 176.77 49.6133 176.77 50.552C176.77 51.6187 176.941 52.536 177.282 53.304C177.666 54.0293 178.199 54.584 178.882 54.968C179.607 55.3093 180.418 55.48 181.314 55.48C182.466 55.48 183.49 55.2027 184.386 54.648C185.325 54.0507 186.157 53.24 186.882 52.216C187.607 51.1493 188.226 49.912 188.738 48.504L189.186 51.896C188.589 53.4747 187.757 54.8613 186.69 56.056C185.666 57.208 184.429 58.104 182.978 58.744C181.57 59.3413 179.927 59.64 178.05 59.64C175.959 59.64 174.125 59.32 172.546 58.68C171.01 57.9973 169.794 56.9947 168.898 55.672C168.045 54.3493 167.618 52.7707 167.618 50.936C167.618 49.1867 168.066 47.672 168.962 46.392C169.901 45.0693 171.266 43.96 173.058 43.064C174.85 42.168 177.09 41.4213 179.778 40.824C182.466 40.184 185.559 39.672 189.058 39.288ZM188.226 59V52.6L187.522 52.664V35.192C187.522 33.784 187.309 32.6533 186.882 31.8C186.498 30.904 185.901 30.264 185.09 29.88C184.322 29.496 183.362 29.304 182.21 29.304C180.461 29.304 179.01 29.6667 177.858 30.392C176.706 31.1173 175.81 31.992 175.17 33.016C174.999 32.5467 174.935 32.0987 174.978 31.672C175.021 31.2453 175.149 30.8613 175.362 30.52C175.575 30.1787 175.874 29.9013 176.258 29.688C176.642 29.432 177.069 29.24 177.538 29.112V36.28H169.794V29.56C170.434 29.048 171.351 28.4933 172.546 27.896C173.741 27.256 175.234 26.7013 177.026 26.232C178.818 25.72 180.866 25.464 183.17 25.464C185.175 25.464 187.01 25.6773 188.674 26.104C190.381 26.488 191.853 27.128 193.09 28.024C194.327 28.92 195.287 30.072 195.97 31.48C196.653 32.8453 196.994 34.488 196.994 36.408V53.688C196.994 54.2 197.143 54.6053 197.442 54.904C197.783 55.16 198.231 55.352 198.786 55.48C199.341 55.608 200.002 55.6933 200.77 55.736L200.962 55.8V59H188.226ZM212.755 56.696L211.603 55.352H221.395C222.59 55.352 223.592 55.3093 224.403 55.224C225.256 55.1387 225.939 54.9893 226.451 54.776C227.006 54.5627 227.432 54.264 227.731 53.88C228.03 53.4533 228.222 52.9413 228.307 52.344L229.139 46.84H232.659V59H203.731V54.392L222.995 28.28L225.427 29.688H215.507C214.355 29.688 213.352 29.7307 212.499 29.816C211.688 29.9013 211.006 30.0507 210.451 30.264C209.939 30.4773 209.534 30.776 209.235 31.16C208.979 31.5013 208.808 31.992 208.723 32.632L207.955 37.24H204.499V26.104H231.891V30.456L212.755 56.696ZM272.272 42.552C272.272 45.9227 271.525 48.9093 270.032 51.512C268.539 54.072 266.427 56.0773 263.696 57.528C261.008 58.936 257.851 59.64 254.224 59.64C250.64 59.64 247.483 58.936 244.752 57.528C242.064 56.0773 239.973 54.072 238.48 51.512C236.987 48.9093 236.24 45.9227 236.24 42.552C236.24 40.0347 236.667 37.7307 237.52 35.64C238.373 33.5493 239.589 31.7573 241.168 30.264C242.789 28.728 244.688 27.5547 246.864 26.744C249.083 25.8907 251.536 25.464 254.224 25.464C256.955 25.464 259.408 25.8907 261.584 26.744C263.803 27.5547 265.701 28.728 267.28 30.264C268.901 31.7573 270.139 33.5493 270.992 35.64C271.845 37.7307 272.272 40.0347 272.272 42.552ZM246.224 42.552C246.224 45.4107 246.544 47.8427 247.184 49.848C247.824 51.8107 248.72 53.304 249.872 54.328C251.067 55.352 252.517 55.864 254.224 55.864C255.973 55.864 257.424 55.352 258.576 54.328C259.771 53.304 260.667 51.8107 261.264 49.848C261.904 47.8427 262.224 45.4107 262.224 42.552C262.224 39.6933 261.904 37.2827 261.264 35.32C260.667 33.3573 259.771 31.8853 258.576 30.904C257.424 29.88 255.973 29.368 254.224 29.368C252.517 29.368 251.067 29.88 249.872 30.904C248.72 31.8853 247.824 33.3573 247.184 35.32C246.544 37.2827 246.224 39.6933 246.224 42.552ZM276.292 59V55.864H276.356C277.124 55.864 277.807 55.8213 278.404 55.736C279.001 55.608 279.471 55.3947 279.812 55.096C280.153 54.7973 280.324 54.3707 280.324 53.816V31.864C280.324 31.3093 280.196 30.904 279.94 30.648C279.727 30.392 279.364 30.1787 278.852 30.008C278.34 29.7947 277.7 29.624 276.932 29.496L276.292 29.368V26.104H289.348V33.016L289.988 33.336V55.288C289.988 55.416 290.18 55.5227 290.564 55.608C290.948 55.6933 291.396 55.7573 291.908 55.8C292.463 55.8427 292.975 55.864 293.444 55.864H293.636V59H276.292ZM315.524 59H298.244V55.864H298.308C298.777 55.864 299.289 55.8427 299.844 55.8C300.399 55.7573 300.868 55.6933 301.252 55.608C301.636 55.5227 301.828 55.416 301.828 55.288V36.152C301.828 34.8293 301.679 33.7627 301.38 32.952C301.124 32.0987 300.676 31.48 300.036 31.096C299.439 30.712 298.628 30.52 297.604 30.52C296.452 30.52 295.364 30.7973 294.34 31.352C293.316 31.9067 292.356 32.7387 291.46 33.848C290.564 34.9573 289.711 36.3013 288.9 37.88L288.516 33.464C289.497 31.7573 290.585 30.328 291.78 29.176C292.975 27.9813 294.319 27.064 295.812 26.424C297.348 25.784 299.055 25.464 300.932 25.464C303.065 25.464 304.921 25.8693 306.5 26.68C308.079 27.4907 309.295 28.6853 310.148 30.264C311.044 31.8427 311.492 33.848 311.492 36.28V53.816C311.492 54.3707 311.663 54.7973 312.004 55.096C312.345 55.3947 312.815 55.608 313.412 55.736C314.009 55.8213 314.671 55.864 315.396 55.864H315.524V59Z" fill="#838383" fill-opacity="0.68"/>
</g>
<path d="M43.857 55.0527C22.5898 64.2914 9.39108 56.5616 0.942186 51.8667C0.419371 51.5708 -0.469231 51.9359 0.301753 52.7442C3.1165 55.8595 12.341 63.3683 24.3817 63.3683C36.4307 63.3683 43.5987 57.3672 44.4954 56.3203C45.386 55.2823 44.7569 54.7098 43.8568 55.0527H43.857ZM49.8299 52.0418C49.2588 51.3629 46.3571 51.2364 44.531 51.4412C42.7021 51.64 39.9568 52.6603 40.1955 53.2729C40.318 53.5024 40.568 53.3995 41.8244 53.2964C43.0842 53.1816 46.6136 52.775 47.349 53.6526C48.0878 54.5362 46.2233 58.7454 45.8828 59.4242C45.5538 60.103 46.0085 60.2781 46.6265 59.826C47.236 59.374 48.3394 58.2036 49.0799 56.5472C49.8153 54.8819 50.2638 52.5587 49.8297 52.0418H49.8299Z" fill="#FF9900"/>
<path fill-rule="evenodd" clip-rule="evenodd" d="M29.5572 36.2157C29.5572 38.6383 29.6243 40.6586 28.282 42.81C27.1986 44.5594 25.4824 45.6351 23.5649 45.6351C20.9474 45.6351 19.4231 43.8159 19.4231 41.1309C19.4231 35.8308 24.629 34.8688 29.5572 34.8688V36.2157ZM36.4314 51.3725C35.9807 51.7398 35.3288 51.7661 34.8207 51.5211C32.5581 49.807 32.1553 49.0111 30.909 47.3755C27.1699 50.8565 24.5237 51.8972 19.6724 51.8972C13.9391 51.8972 9.47119 48.6699 9.47119 42.2066C9.47119 37.1603 12.4723 33.7231 16.7385 32.044C20.4394 30.557 25.6071 30.2946 29.5572 29.8837V29.079C29.5572 27.6009 29.6817 25.8517 28.7327 24.5749C27.8984 23.4291 26.3069 22.9568 24.907 22.9568C22.3089 22.9568 19.9887 24.1724 19.4231 26.6913C19.3079 27.2511 18.8574 27.8022 18.2438 27.8284L11.6283 27.1813C11.0724 27.0673 10.4588 26.6564 10.6122 25.8779C12.1366 18.5664 19.375 16.3623 25.8561 16.3623C29.1734 16.3623 33.5069 17.167 36.1244 19.4585C39.4418 22.2834 39.1253 26.0528 39.1253 30.1547V39.8453C39.1253 42.7577 40.4484 44.0345 41.6947 45.6089C42.1357 46.1686 42.2317 46.8422 41.6755 47.2618C40.2853 48.32 37.8117 50.288 36.4504 51.39L36.4312 51.3725" fill="black"/>
<path d="M43.857 55.0527C22.5898 64.2914 9.39108 56.5616 0.942186 51.8667C0.419371 51.5708 -0.469231 51.9359 0.301753 52.7442C3.1165 55.8595 12.341 63.3683 24.3817 63.3683C36.4307 63.3683 43.5987 57.3672 44.4954 56.3203C45.386 55.2823 44.7569 54.7098 43.8568 55.0527H43.857ZM49.8299 52.0418C49.2588 51.3629 46.3571 51.2364 44.531 51.4412C42.7021 51.64 39.9568 52.6603 40.1955 53.2729C40.318 53.5024 40.568 53.3995 41.8244 53.2964C43.0842 53.1816 46.6136 52.775 47.349 53.6526C48.0878 54.5362 46.2233 58.7454 45.8828 59.4242C45.5538 60.103 46.0085 60.2781 46.6265 59.826C47.236 59.374 48.3394 58.2036 49.0799 56.5472C49.8153 54.8819 50.2638 52.5587 49.8297 52.0418H49.8299Z" fill="#FF9900"/>
<defs>
<filter id="filter0_i_8_15" x="59.8245" y="13.5601" width="255.7" height="50.08" filterUnits="userSpaceOnUse" color-interpolation-filters="sRGB">
<feFlood flood-opacity="0" result="BackgroundImageFix"/>
<feBlend mode="normal" in="SourceGraphic" in2="BackgroundImageFix" result="shape"/>
<feColorMatrix in="SourceAlpha" type="matrix" values="0 0 0 0 0 0 0 0 0 0 0 0 0 0 0 0 0 0 127 0" result="hardAlpha"/>
<feOffset dy="4"/>
<feGaussianBlur stdDeviation="2"/>
<feComposite in2="hardAlpha" operator="arithmetic" k2="-1" k3="1"/>
<feColorMatrix type="matrix" values="0 0 0 0 0 0 0 0 0 0 0 0 0 0 0 0 0 0 0.25 0"/>
<feBlend mode="normal" in2="shape" result="effect1_innerShadow_8_15"/>
</filter>
</defs>
</svg>
