<svg width="264" height="75" viewBox="0 0 264 75" fill="none" xmlns="http://www.w3.org/2000/svg">
<g filter="url(#filter0_i_8_12)">
<path d="M66.2523 55.672L65.6763 59H44.8762L45.4522 55.672H46.0282C47.2656 55.672 48.3109 55.5227 49.1643 55.224C50.0603 54.9253 50.5723 54.3707 50.7003 53.56L56.8443 19.064C56.9296 18.4667 56.8016 18.0187 56.4603 17.72C56.1616 17.4213 55.6923 17.208 55.0523 17.08C54.4549 16.952 53.7509 16.888 52.9403 16.888H52.3003L52.9403 13.56H72.5243C76.1509 13.56 79.1803 14.072 81.6123 15.096C84.0869 16.0773 85.9429 17.4853 87.1803 19.32C88.4603 21.112 89.1003 23.2453 89.1003 25.72C89.1003 27.9387 88.6736 29.9653 87.8203 31.8C86.9669 33.6347 85.7083 35.2347 84.0443 36.6C82.3803 37.9227 80.3109 38.9467 77.8363 39.672C75.3616 40.3973 72.5029 40.76 69.2603 40.76H63.1803L60.7483 54.84C60.7056 55.0533 60.8763 55.224 61.2603 55.352C61.6869 55.48 62.2203 55.5653 62.8603 55.608C63.5429 55.6507 64.2256 55.672 64.9083 55.672H66.2523ZM78.8603 25.08C78.8603 23.416 78.5829 22.0293 78.0283 20.92C77.4736 19.8107 76.6203 18.9787 75.4683 18.424C74.3163 17.8267 72.8656 17.528 71.1163 17.528H67.3403L63.8843 36.92H68.2363C70.1136 36.92 71.7136 36.6213 73.0363 36.024C74.4016 35.384 75.5109 34.5307 76.3643 33.464C77.2176 32.3973 77.8363 31.16 78.2203 29.752C78.6469 28.3013 78.8603 26.744 78.8603 25.08ZM119.524 35.128L116.324 36.152C116.068 34.744 115.641 33.528 115.044 32.504C114.489 31.48 113.764 30.712 112.868 30.2C112.014 29.6453 111.012 29.368 109.86 29.368C108.622 29.368 107.492 29.752 106.468 30.52C105.444 31.2453 104.526 32.248 103.716 33.528C102.905 34.7653 102.222 36.1947 101.668 37.816C101.113 39.3947 100.686 41.0373 100.388 42.744C100.089 44.4507 99.9398 46.1147 99.9398 47.736C99.9398 49.4 100.089 50.7653 100.388 51.832C100.729 52.8987 101.22 53.7093 101.86 54.264C102.5 54.776 103.246 55.032 104.1 55.032C105.294 55.032 106.382 54.6053 107.364 53.752C108.388 52.8987 109.39 51.6827 110.372 50.104C111.353 48.4827 112.377 46.584 113.444 44.408L115.236 46.072C113.828 48.888 112.462 51.32 111.14 53.368C109.817 55.416 108.345 56.9947 106.724 58.104C105.145 59.2133 103.246 59.768 101.028 59.768C98.8091 59.768 96.8678 59.2773 95.2038 58.296C93.5398 57.272 92.2384 55.8213 91.2998 53.944C90.3611 52.024 89.8918 49.72 89.8918 47.032C89.8918 44.8133 90.1691 42.6587 90.7238 40.568C91.3211 38.4773 92.1531 36.5147 93.2198 34.68C94.2864 32.8453 95.5664 31.2453 97.0598 29.88C98.5958 28.472 100.345 27.384 102.308 26.616C104.27 25.848 106.404 25.464 108.708 25.464C110.841 25.464 112.633 25.8907 114.084 26.744C115.577 27.5973 116.772 28.7493 117.668 30.2C118.564 31.6507 119.182 33.2933 119.524 35.128ZM125.156 25.784L121.188 48.184C121.06 49.0373 120.932 49.8053 120.804 50.488C120.676 51.128 120.569 51.704 120.484 52.216C120.441 52.728 120.42 53.1547 120.42 53.496C120.42 54.0933 120.569 54.5413 120.868 54.84C121.209 55.096 121.7 55.224 122.34 55.224C123.15 55.224 123.897 55.0747 124.58 54.776C125.262 54.4773 125.753 54.2853 126.052 54.2L125.412 57.592C124.985 57.8907 124.409 58.2107 123.684 58.552C123.001 58.8507 122.212 59.0853 121.316 59.256C120.462 59.4693 119.524 59.576 118.5 59.576C117.049 59.576 115.769 59.32 114.66 58.808C113.593 58.296 112.761 57.5493 112.164 56.568C111.566 55.544 111.268 54.3067 111.268 52.856C111.268 52.472 111.289 52.088 111.332 51.704C111.417 51.2773 111.524 50.7653 111.652 50.168L111.012 51.448L114.724 30.328L115.3 30.264L119.268 25.784H125.156ZM140.967 63.096L143.719 59.768L147.559 53.24L141.799 26.104H129.703L129.191 29.368L129.831 29.496C130.641 29.624 131.281 29.7947 131.751 30.008C132.22 30.1787 132.583 30.4347 132.839 30.776C133.137 31.0747 133.351 31.5227 133.479 32.12L140.967 63.096ZM145.319 54.52L142.439 57.848C141.457 59.512 140.519 60.92 139.623 62.072C138.769 63.224 137.895 64.1413 136.999 64.824C136.145 65.5067 135.249 65.9973 134.311 66.296C133.415 66.6373 132.455 66.808 131.431 66.808C129.895 66.808 128.657 66.616 127.719 66.232C126.78 65.8907 126.14 65.6347 125.799 65.464L124.519 72.632C124.775 72.8027 125.351 73.0587 126.247 73.4C127.143 73.7413 128.359 73.912 129.895 73.912C131.303 73.912 132.647 73.6133 133.927 73.016C135.249 72.4613 136.551 71.5653 137.831 70.328C139.153 69.1333 140.519 67.576 141.927 65.656C143.335 63.736 144.849 61.4533 146.471 58.808C147.708 56.8453 148.945 54.8187 150.183 52.728C151.42 50.5947 152.636 48.44 153.831 46.264C155.025 44.088 156.177 41.912 157.287 39.736C158.439 37.5173 159.505 35.32 160.487 33.144C161.468 30.9253 162.343 28.728 163.111 26.552L163.175 26.104H156.007C155.495 28.4507 154.855 30.84 154.087 33.272C153.361 35.6613 152.529 38.0507 151.591 40.44C150.695 42.8293 149.713 45.1973 148.647 47.544C147.623 49.8907 146.513 52.216 145.319 54.52ZM182.627 55.672L182.051 59H161.251L161.827 55.672H162.403C163.641 55.672 164.686 55.5227 165.539 55.224C166.435 54.9253 166.947 54.3707 167.075 53.56L173.219 19.064C173.305 18.4667 173.177 18.0187 172.835 17.72C172.537 17.4213 172.067 17.208 171.427 17.08C170.83 16.952 170.126 16.888 169.315 16.888H168.675L169.315 13.56H188.899C192.526 13.56 195.555 14.072 197.987 15.096C200.462 16.0773 202.318 17.4853 203.555 19.32C204.835 21.112 205.475 23.2453 205.475 25.72C205.475 27.9387 205.049 29.9653 204.195 31.8C203.342 33.6347 202.083 35.2347 200.419 36.6C198.755 37.9227 196.686 38.9467 194.211 39.672C191.737 40.3973 188.878 40.76 185.635 40.76H179.555L177.123 54.84C177.081 55.0533 177.251 55.224 177.635 55.352C178.062 55.48 178.595 55.5653 179.235 55.608C179.918 55.6507 180.601 55.672 181.283 55.672H182.627ZM195.235 25.08C195.235 23.416 194.958 22.0293 194.403 20.92C193.849 19.8107 192.995 18.9787 191.843 18.424C190.691 17.8267 189.241 17.528 187.491 17.528H183.715L180.259 36.92H184.611C186.489 36.92 188.089 36.6213 189.411 36.024C190.777 35.384 191.886 34.5307 192.739 33.464C193.593 32.3973 194.211 31.16 194.595 29.752C195.022 28.3013 195.235 26.744 195.235 25.08ZM235.899 35.128L232.699 36.152C232.443 34.744 232.016 33.528 231.419 32.504C230.864 31.48 230.139 30.712 229.243 30.2C228.389 29.6453 227.387 29.368 226.235 29.368C224.997 29.368 223.867 29.752 222.843 30.52C221.819 31.2453 220.901 32.248 220.091 33.528C219.28 34.7653 218.597 36.1947 218.043 37.816C217.488 39.3947 217.061 41.0373 216.763 42.744C216.464 44.4507 216.315 46.1147 216.315 47.736C216.315 49.4 216.464 50.7653 216.763 51.832C217.104 52.8987 217.595 53.7093 218.235 54.264C218.875 54.776 219.621 55.032 220.475 55.032C221.669 55.032 222.757 54.6053 223.739 53.752C224.763 52.8987 225.765 51.6827 226.747 50.104C227.728 48.4827 228.752 46.584 229.819 44.408L231.611 46.072C230.203 48.888 228.837 51.32 227.515 53.368C226.192 55.416 224.72 56.9947 223.099 58.104C221.52 59.2133 219.621 59.768 217.403 59.768C215.184 59.768 213.243 59.2773 211.579 58.296C209.915 57.272 208.613 55.8213 207.675 53.944C206.736 52.024 206.267 49.72 206.267 47.032C206.267 44.8133 206.544 42.6587 207.099 40.568C207.696 38.4773 208.528 36.5147 209.595 34.68C210.661 32.8453 211.941 31.2453 213.435 29.88C214.971 28.472 216.72 27.384 218.683 26.616C220.645 25.848 222.779 25.464 225.083 25.464C227.216 25.464 229.008 25.8907 230.459 26.744C231.952 27.5973 233.147 28.7493 234.043 30.2C234.939 31.6507 235.557 33.2933 235.899 35.128ZM241.531 25.784L237.563 48.184C237.435 49.0373 237.307 49.8053 237.179 50.488C237.051 51.128 236.944 51.704 236.859 52.216C236.816 52.728 236.795 53.1547 236.795 53.496C236.795 54.0933 236.944 54.5413 237.243 54.84C237.584 55.096 238.075 55.224 238.715 55.224C239.525 55.224 240.272 55.0747 240.955 54.776C241.637 54.4773 242.128 54.2853 242.427 54.2L241.787 57.592C241.36 57.8907 240.784 58.2107 240.059 58.552C239.376 58.8507 238.587 59.0853 237.691 59.256C236.837 59.4693 235.899 59.576 234.875 59.576C233.424 59.576 232.144 59.32 231.035 58.808C229.968 58.296 229.136 57.5493 228.539 56.568C227.941 55.544 227.643 54.3067 227.643 52.856C227.643 52.472 227.664 52.088 227.707 51.704C227.792 51.2773 227.899 50.7653 228.027 50.168L227.387 51.448L231.099 30.328L231.675 30.264L235.643 25.784H241.531ZM253.186 17.4C253.272 16.8453 253.208 16.44 252.994 16.184C252.781 15.8853 252.418 15.6507 251.906 15.48C251.394 15.2667 250.733 15.096 249.922 14.968L249.282 14.84L249.794 11.64H263.81L257.218 48.632C257.09 49.4 256.962 50.0827 256.834 50.68C256.749 51.2773 256.664 51.8107 256.578 52.28C256.536 52.7493 256.514 53.1547 256.514 53.496C256.514 54.0933 256.664 54.5413 256.962 54.84C257.304 55.096 257.816 55.224 258.498 55.224C259.01 55.224 259.501 55.16 259.97 55.032C260.482 54.8613 260.93 54.6907 261.314 54.52C261.698 54.3493 261.997 54.2427 262.21 54.2L261.57 57.592C261.144 57.8907 260.568 58.2107 259.842 58.552C259.16 58.8507 258.37 59.0853 257.474 59.256C256.578 59.4693 255.618 59.576 254.594 59.576C253.144 59.576 251.842 59.3413 250.69 58.872C249.581 58.36 248.706 57.6133 248.066 56.632C247.426 55.6507 247.106 54.4133 247.106 52.92C247.106 52.408 247.128 51.8747 247.17 51.32C247.256 50.7653 247.362 50.104 247.49 49.336C247.618 48.568 247.768 47.672 247.938 46.648L253.186 17.4Z" fill="#838383" fill-opacity="0.68"/>
</g>
<path d="M35.4345 24.7332C35.5524 19.2629 30.4961 15.0635 23.5438 15.0635H9.16564C8.83048 15.0636 8.50636 15.1705 8.25162 15.3649C7.99688 15.5593 7.82824 15.8286 7.77605 16.1241L2.01401 48.2643C1.98823 48.4099 1.99811 48.5588 2.04298 48.7007C2.08784 48.8426 2.16661 48.9741 2.27388 49.0862C2.38114 49.1984 2.51435 49.2884 2.66432 49.3501C2.8143 49.4119 2.97748 49.4439 3.14263 49.4439H11.6618L10.3295 56.8872C10.3037 57.0329 10.3136 57.1819 10.3585 57.3238C10.4035 57.4658 10.4823 57.5974 10.5897 57.7095C10.6971 57.8216 10.8305 57.9116 10.9806 57.9733C11.1307 58.035 11.294 58.0669 11.4592 58.0668H18.3983C18.7342 58.0668 19.0326 57.9586 19.2869 57.765C19.5413 57.5704 19.5831 57.302 19.6349 57.0061L21.6719 46.3062C21.7237 46.0113 21.8921 45.6279 22.1476 45.4333C22.4019 45.2386 22.6244 45.1325 22.9591 45.1315H27.2071C34.0152 45.1315 39.7927 40.8122 40.8486 34.8031C41.5952 30.5369 39.5471 26.657 35.4356 24.7332H35.4345Z" fill="#001C64"/>
<path d="M12.6564 38.4626L10.4194 50.9826L9.01477 58.8347C8.98758 58.9866 8.99802 59.1419 9.04539 59.2898C9.09275 59.4378 9.17591 59.575 9.28912 59.6918C9.40234 59.8087 9.54292 59.9025 9.70117 59.9668C9.85943 60.0311 10.0316 60.0643 10.2058 60.0642H17.9488C18.3019 60.0638 18.6434 59.9523 18.9117 59.7497C19.18 59.5471 19.3576 59.2666 19.4126 58.9587L21.4534 47.5452C21.5084 47.2375 21.6861 46.9571 21.9545 46.7546C22.2228 46.5522 22.5642 46.4409 22.9173 46.4408H27.476C34.6536 46.4408 40.7435 41.8201 41.8568 35.557C42.6462 31.1115 40.1108 27.0676 35.7762 25.0615C35.7646 25.5349 35.7181 26.0072 35.6357 26.4754C34.5224 32.7374 28.4314 37.3592 21.2538 37.3592H14.1202C13.7674 37.3592 13.4261 37.4704 13.1578 37.6727C12.8894 37.8749 12.7117 38.155 12.6564 38.4626Z" fill="#0070E0"/>
<path d="M10.0486 49.0644H1.18544C1.01406 49.0645 0.844702 49.0307 0.689039 48.9652C0.533377 48.8997 0.395122 48.8041 0.283818 48.6851C0.172515 48.566 0.0908134 48.4263 0.0443547 48.2756C-0.00210403 48.1249 -0.0122137 47.9668 0.0147233 47.8122L5.9905 13.1864C6.04466 12.8728 6.21963 12.5871 6.4839 12.3809C6.74816 12.1746 7.08435 12.0614 7.4319 12.0615H22.6649C29.8753 12.0615 35.1201 16.8565 34.9979 22.6636C33.2036 21.8037 31.0952 21.3122 28.7846 21.3122H16.0849C15.7376 21.3126 15.4018 21.426 15.1378 21.6322C14.8739 21.8383 14.699 22.1238 14.6446 22.4371L12.2518 36.3127L10.0474 49.0644H10.0486Z" fill="#003087"/>
<defs>
<filter id="filter0_i_8_12" x="44.8762" y="11.64" width="218.934" height="66.272" filterUnits="userSpaceOnUse" color-interpolation-filters="sRGB">
<feFlood flood-opacity="0" result="BackgroundImageFix"/>
<feBlend mode="normal" in="SourceGraphic" in2="BackgroundImageFix" result="shape"/>
<feColorMatrix in="SourceAlpha" type="matrix" values="0 0 0 0 0 0 0 0 0 0 0 0 0 0 0 0 0 0 127 0" result="hardAlpha"/>
<feOffset dy="4"/>
<feGaussianBlur stdDeviation="2"/>
<feComposite in2="hardAlpha" operator="arithmetic" k2="-1" k3="1"/>
<feColorMatrix type="matrix" values="0 0 0 0 0 0 0 0 0 0 0 0 0 0 0 0 0 0 0.25 0"/>
<feBlend mode="normal" in2="shape" result="effect1_innerShadow_8_12"/>
</filter>
</defs>
</svg>
