<svg width="150" height="157" viewBox="0 0 150 157" fill="none" xmlns="http://www.w3.org/2000/svg">
<path d="M147.997 30.1381C147.329 29.4602 146.51 28.9121 145.592 28.5281C144.674 28.1441 143.677 27.9325 142.663 27.9065C126.908 27.5406 106.972 12.5777 93.792 6.7059C85.6502 3.09016 80.275 0.706084 76.2385 0.0780551C75.4189 -0.0280235 74.5861 -0.0259688 73.7671 0.0841525C69.7306 0.712182 64.3554 3.09625 56.2205 6.712C43.04 12.5777 23.1044 27.5406 7.34955 27.9065C6.33472 27.9338 5.33703 28.146 4.41831 28.5299C3.4996 28.9137 2.67945 29.4611 2.00869 30.1381C0.618366 31.5352 -0.0989689 33.3612 0.0110109 35.2233C3.39539 96.3373 28.0746 134.159 71.3782 156.14C72.504 156.707 73.7534 157 74.9959 157C76.2385 157 77.4879 156.707 78.6206 156.14C121.924 134.159 146.596 96.3373 149.988 35.2233C150.104 33.3615 149.389 31.5341 147.997 30.1381ZM113.563 54.1739L77.0211 102.069C75.7099 103.788 73.6504 104.928 71.6116 104.928C69.5658 104.928 67.2936 103.935 65.8588 102.66L40.1018 79.7768C39.2609 79.0271 38.7887 78.012 38.7887 76.9537C38.7887 75.8955 39.2609 74.8803 40.1018 74.1306L46.4656 68.4662C47.3114 67.7222 48.4536 67.3049 49.644 67.3049C50.8344 67.3049 51.9766 67.7222 52.8224 68.4662L69.5727 83.3438L98.6729 45.1925C99.3462 44.3195 100.381 43.7185 101.551 43.5209C102.722 43.3232 103.933 43.545 104.92 44.1377L112.368 48.6253C113.352 49.2224 114.03 50.1411 114.254 51.1808C114.478 52.2204 114.229 53.2965 113.563 54.1739Z" fill="#0057FF"/>
</svg>
