<svg width="174" height="156" viewBox="0 0 174 156" fill="none" xmlns="http://www.w3.org/2000/svg">
<path d="M172.431 58.2953H122.216C121.353 58.2953 120.647 59.0021 120.647 59.866V69.2899C120.647 70.1538 121.353 70.8606 122.216 70.8606H172.431C173.294 70.8606 174 70.1538 174 69.2899V59.866C174 59.0021 173.294 58.2953 172.431 58.2953ZM146.146 84.9965H122.216C121.353 84.9965 120.647 85.7033 120.647 86.5671V95.9911C120.647 96.8549 121.353 97.5617 122.216 97.5617H146.146C147.009 97.5617 147.716 96.8549 147.716 95.9911V86.5671C147.716 85.7033 147.009 84.9965 146.146 84.9965ZM80.6903 40.7236H72.1969C70.9808 40.7236 70 41.7053 70 42.9226V91.6129C70 92.3197 70.3335 92.9675 70.9023 93.3798L100.109 114.701C101.09 115.408 102.463 115.212 103.169 114.23L108.21 107.339V107.319C108.917 106.338 108.701 104.963 107.72 104.257L82.8676 86.2726V42.9226C82.8872 41.7053 81.8868 40.7236 80.6903 40.7236Z" fill="#0057FF"/>
<path d="M144.188 110.009H132.815C131.713 110.009 130.67 110.584 130.08 111.536C127.581 115.52 124.669 119.207 121.324 122.577C115.559 128.385 108.849 132.944 101.392 136.116C93.6591 139.407 85.4541 141.072 76.9933 141.072C68.5128 141.072 60.3078 139.407 52.5948 136.116C45.1375 132.944 38.4279 128.385 32.6627 122.577C26.8976 116.769 22.372 110.009 19.2238 102.497C15.9576 94.7261 14.3048 86.4601 14.3048 77.9165C14.3048 69.3729 15.9576 61.1266 19.2238 53.3363C22.372 45.8234 26.8976 39.0639 32.6627 33.2558C38.4279 27.4478 45.1375 22.8885 52.5948 19.7169C60.3078 16.4263 68.5325 14.7612 76.9933 14.7612C85.4738 14.7612 93.6788 16.4263 101.392 19.7169C108.849 22.8885 115.559 27.4478 121.324 33.2558C124.669 36.6257 127.581 40.3127 130.08 44.2971C130.67 45.2486 131.713 45.8235 132.815 45.8235H144.188C145.545 45.8235 146.411 44.3962 145.801 43.187C132.972 17.4769 106.96 0.766373 77.9181 0.429386C35.3977 -0.105828 0.0788394 34.9606 0.000134424 77.7579C-0.0785706 120.634 34.4139 155.423 76.9736 155.423C106.39 155.423 132.835 138.653 145.801 112.646C146.411 111.437 145.526 110.009 144.188 110.009Z" fill="#0057FF"/>
</svg>
